<?xml version="1.0" encoding="utf-8"?>
<!-- Generator: Adobe Illustrator 24.0.0, SVG Export Plug-In . SVG Version: 6.00 Build 0)  -->
<svg version="1.1" id="Layer_1" xmlns="http://www.w3.org/2000/svg" xmlns:xlink="http://www.w3.org/1999/xlink" x="0px" y="0px"
	 viewBox="0 0 53.8 48.5" style="enable-background:new 0 0 53.8 48.5;" xml:space="preserve">
<style type="text/css">
	.st0{fill:#E5E5E5;}
</style>
<g>
	<g>
		<path class="st0" d="M2.1,23c0.3,0,0.4,0.2,0.4,0.4v3.7c0,0.3,0.2,0.4,0.4,0.4h1.4c0.3,0,0.4-0.2,0.4-0.4v-3.7
			C4.8,23.1,5,23,5.2,23h1.6c0.3,0,0.4,0.1,0.4,0.4v9.4c0,0.3-0.1,0.4-0.4,0.4H5.2c-0.3,0-0.4-0.2-0.4-0.4v-2.3
			c0-0.3-0.1-0.4-0.4-0.4H3c-0.3,0-0.4,0.1-0.4,0.4v2.3c0,0.3-0.1,0.4-0.4,0.4H0.4c-0.3,0-0.4-0.2-0.4-0.4v-9.4
			C0,23.1,0.1,23,0.4,23H2.1z"/>
		<path class="st0" d="M16,29.9c0,1-0.2,3.6-3.7,3.6c-3.5,0-3.7-2.6-3.7-3.6v-3.7c0-1,0.2-3.6,3.7-3.6c3.5,0,3.7,2.6,3.7,3.6V29.9z
			 M13.4,27.1c0-1.1-0.1-1.8-1.2-1.8c-1.1,0-1.2,0.7-1.2,1.8v2.1c0,1.1,0.1,1.8,1.2,1.8c1.1,0,1.2-0.7,1.2-1.8V27.1z"/>
		<path class="st0" d="M19.4,23c0.3,0,0.4,0.1,0.4,0.4v6.8c0,0.3,0.2,0.4,0.4,0.4h3.3c0.3,0,0.4,0.1,0.4,0.4v1.6
			c0,0.3-0.1,0.4-0.4,0.4h-5.8c-0.3,0-0.4-0.2-0.4-0.4v-9.4c0-0.3,0.2-0.4,0.4-0.4H19.4z"/>
		<path class="st0" d="M26.9,23c0.3,0,0.4,0.1,0.4,0.4v9.4c0,0.3-0.1,0.4-0.4,0.4h-1.6c-0.3,0-0.4-0.2-0.4-0.4v-9.4
			c0-0.3,0.2-0.4,0.4-0.4H26.9z"/>
		<path class="st0" d="M32.5,23c2.7,0,3.7,1.1,3.7,3.5v3.2c0,2.4-0.9,3.5-3.7,3.5h-3.3c-0.3,0-0.4-0.2-0.4-0.4v-9.3
			c0-0.3,0.1-0.4,0.4-0.5H32.5z M32.5,30.7c0.7,0,1.1-0.1,1.1-1c0,0,0-3.2,0-3.2c0-0.9-0.4-1-1.1-1h-0.8c-0.3,0-0.4,0.1-0.4,0.4v4.3
			c0,0.3,0.2,0.4,0.4,0.4H32.5z"/>
		<path class="st0" d="M44.5,32.7c0,0.3-0.1,0.5-0.4,0.5h-1.6c-0.3,0-0.4-0.1-0.4-0.4v-1.3c0-0.3-0.1-0.4-0.4-0.4h-1.3
			c-0.3,0-0.4,0.1-0.4,0.4v1.3c0,0.3-0.1,0.4-0.4,0.4h-1.6c-0.3,0-0.4-0.2-0.4-0.5v-6.2c0-1.8,0.3-3.8,3.6-3.8s3.6,2,3.6,3.8V32.7z
			 M42,26.5c0-0.7-0.1-1.1-1.1-1.1s-1.1,0.4-1.1,1.1v1.6c0,0.3,0.2,0.4,0.4,0.4h1.3c0.3,0,0.4-0.2,0.4-0.5V26.5z"/>
		<path class="st0" d="M47.9,23c0.2,0,0.4,0.1,0.5,0.3l1.1,2.7c0.1,0.1,0.1,0.1,0.2,0l1.1-2.7c0.1-0.2,0.2-0.3,0.5-0.3h2.1
			c0.3,0,0.5,0.2,0.3,0.5l-2.6,5.8c0,0.1,0,0.1,0,0.2v3.3c0,0.3-0.1,0.4-0.4,0.4h-2c-0.3,0-0.4-0.2-0.4-0.4v-3.3c0-0.1,0-0.1,0-0.2
			l-2.6-5.8c-0.1-0.3,0-0.5,0.3-0.5H47.9z"/>
		<path class="st0" d="M2.8,35.4c0.3,0,0.5,0.2,0.5,0.5v4.6c0,0.3,0.2,0.5,0.5,0.5h1.8c0.4,0,0.5-0.2,0.5-0.5v-4.6
			c0-0.3,0.2-0.5,0.5-0.5h2c0.4,0,0.5,0.2,0.5,0.5v11.7c0,0.3-0.2,0.5-0.5,0.5h-2c-0.3,0-0.5-0.2-0.5-0.5v-2.9
			c0-0.4-0.2-0.5-0.5-0.5H3.9c-0.3,0-0.5,0.2-0.5,0.5v2.9c0,0.3-0.2,0.5-0.5,0.5h-2c-0.3,0-0.5-0.2-0.5-0.5V35.9
			c0-0.4,0.2-0.5,0.5-0.5H2.8z"/>
		<path class="st0" d="M20.1,44.1c0,1.2-0.3,4.4-4.6,4.4S11,45.3,11,44.1v-4.6c0-1.2,0.3-4.4,4.6-4.4s4.6,3.2,4.6,4.4V44.1z
			 M17,40.5c0-1.4-0.1-2.3-1.4-2.3c-1.4,0-1.4,0.9-1.4,2.3v2.6c0,1.4,0.1,2.3,1.4,2.3c1.4,0,1.4-0.9,1.4-2.3V40.5z"/>
		<path class="st0" d="M24.3,35.4c0.4,0,0.5,0.2,0.5,0.5v7.2c0,1.4,0.1,2.3,1.4,2.3c1.4,0,1.4-0.9,1.4-2.3v-7.2
			c0-0.4,0.2-0.5,0.5-0.5h2c0.4,0,0.5,0.2,0.5,0.5v8.1c0,1.2-0.3,4.4-4.6,4.4s-4.6-3.2-4.6-4.4v-8.1c0-0.4,0.2-0.5,0.5-0.5H24.3z"/>
		<path class="st0" d="M38.9,39.9c-0.4,0.1-0.5-0.1-0.6-0.5c-0.1-0.7-0.7-1.2-1.6-1.2c-0.7,0-1.2,0.4-1.1,0.8c0.3,1.4,6,1.4,6,5.6
			c0,0.5-0.6,3.8-5,3.8c-3.8,0-4.7-2.5-4.7-3.9c0-0.3,0.1-0.5,0.5-0.6l2.1-0.5c0.4-0.1,0.6,0.1,0.6,0.5c0.1,0.9,0.7,1.4,1.6,1.4
			c0.9,0,1.6-0.5,1.4-1c-0.3-1.6-5.8-1.2-5.8-5.4c0-0.5,0.3-3.8,4.4-3.8c3.8,0,4.6,2.4,4.7,3.8c0,0.3-0.1,0.5-0.5,0.6L38.9,39.9z"/>
		<path class="st0" d="M51.2,35.4c0.4,0,0.5,0.2,0.5,0.5v2c0,0.3-0.2,0.5-0.5,0.5h-4.4c-0.3,0-0.5,0.2-0.5,0.5v0.6
			c0,0.3,0.2,0.5,0.5,0.5h2.8c0.4,0,0.5,0.2,0.5,0.5v2c0,0.3-0.2,0.5-0.5,0.5h-2.8c-0.3,0-0.5,0.2-0.5,0.5v0.6
			c0,0.3,0.2,0.5,0.5,0.5h4.4c0.4,0,0.5,0.2,0.5,0.5v2c0,0.4-0.2,0.5-0.5,0.5h-7.7c-0.3,0-0.5-0.2-0.5-0.5V35.9
			c0-0.4,0.2-0.5,0.5-0.5H51.2z"/>
	</g>
	<path class="st0" d="M45.1,19.1h-6.7c-0.1-1.6-0.5-3.2-1.2-4.7c-0.5-1-1.1-1.9-1.9-2.7l4.9-4.9c0.3-0.3,0.3-0.9,0-1.2
		c-0.3-0.3-0.9-0.3-1.2,0l-5,5c-1.9-1.5-4.2-2.4-6.6-2.5V0.8c0-0.5-0.4-0.8-0.8-0.8c-0.5,0-0.8,0.4-0.8,0.8v7.3
		c-2.4,0.2-4.7,1.2-6.5,2.7l-5.1-5.1c-0.3-0.3-0.9-0.3-1.2,0c-0.3,0.3-0.3,0.9,0,1.2l5.1,5.1c-0.7,0.7-1.2,1.6-1.7,2.5
		c-0.7,1.5-1.2,3-1.2,4.7h-7c-0.5,0-0.8,0.4-0.8,0.8c0,0.5,0.4,0.8,0.8,0.8h36.9c0.5,0,0.8-0.4,0.8-0.8
		C45.9,19.5,45.5,19.1,45.1,19.1z M17.9,15.2c0.5-1,1.2-1.9,1.9-2.6c0,0,0,0,0,0c0,0,0,0,0,0c1.8-1.8,4.3-2.8,6.9-2.8
		c2.5,0,4.9,1,6.7,2.6c0,0,0,0,0,0c0,0,0.1,0,0.1,0.1c0.8,0.8,1.5,1.7,2.1,2.8c0.6,1.2,1,2.6,1.1,3.9H16.8
		C16.9,17.7,17.3,16.4,17.9,15.2z"/>
</g>
</svg>
