<?xml version="1.0" encoding="utf-8"?>
<!-- Generator: Adobe Illustrator 24.0.0, SVG Export Plug-In . SVG Version: 6.00 Build 0)  -->
<svg version="1.1" id="Layer_1" xmlns="http://www.w3.org/2000/svg" xmlns:xlink="http://www.w3.org/1999/xlink" x="0px" y="0px"
	 viewBox="0 0 1924 302.6" style="enable-background:new 0 0 1924 302.6;" xml:space="preserve">
<style type="text/css">
	.st0{fill:#EFEFEF;}
	.st1{fill:#FFFFFF;}
	.st2{fill:#EAEAEA;}
	.st3{fill:#CECECE;}
</style>
<g>
	<g>
		<path class="st0" d="M1880.8,302H1829c-1.1,0-2-0.9-2-2s0.9-2,2-2h49.8V64.3h-98.3v151.2c0,1.1-0.9,2-2,2s-2-0.9-2-2V62.3
			c0-1.1,0.9-2,2-2h102.3c1.1,0,2,0.9,2,2V300C1882.8,301.1,1881.9,302,1880.8,302z"/>
	</g>
	<g>
		<path class="st0" d="M1861.8,64.3h-64.3c-1.1,0-2-0.9-2-2V30.7c0-1.1,0.9-2,2-2h64.3c1.1,0,2,0.9,2,2v31.7
			C1863.8,63.4,1862.9,64.3,1861.8,64.3z M1799.5,60.3h60.3V32.7h-60.3V60.3z"/>
	</g>
	<g>
		<path class="st0" d="M1844,32.7h-28.7c-1.1,0-2-0.9-2-2V2c0-1.1,0.9-2,2-2h28.7c1.1,0,2,0.9,2,2v28.7
			C1846,31.8,1845.1,32.7,1844,32.7z M1817.3,28.7h24.7V4h-24.7V28.7z"/>
	</g>
	<g>
		<path class="st0" d="M1822.2,32.7c-1.1,0-2-0.9-2-2V2c0-1.1,0.9-2,2-2s2,0.9,2,2v28.7C1824.2,31.8,1823.3,32.7,1822.2,32.7z"/>
	</g>
	<g>
		<path class="st0" d="M1829.7,32.7c-1.1,0-2-0.9-2-2V2c0-1.1,0.9-2,2-2s2,0.9,2,2v28.7C1831.7,31.8,1830.8,32.7,1829.7,32.7z"/>
	</g>
	<g>
		<path class="st0" d="M1837.3,32.7c-1.1,0-2-0.9-2-2V2c0-1.1,0.9-2,2-2s2,0.9,2,2v28.7C1839.3,31.8,1838.4,32.7,1837.3,32.7z"/>
	</g>
	<g>
		<g>
			<path class="st0" d="M1838.1,99.3h-16.9c-1.1,0-2-0.9-2-2V74c0-1.1,0.9-2,2-2h16.9c1.1,0,2,0.9,2,2v23.4
				C1840.1,98.4,1839.2,99.3,1838.1,99.3z M1823.2,95.3h12.9V76h-12.9V95.3z"/>
		</g>
		<g>
			<path class="st0" d="M1868.1,99.3h-16.9c-1.1,0-2-0.9-2-2V74c0-1.1,0.9-2,2-2h16.9c1.1,0,2,0.9,2,2v23.4
				C1870.1,98.4,1869.2,99.3,1868.1,99.3z M1853.2,95.3h12.9V76h-12.9V95.3z"/>
		</g>
		<g>
			<path class="st0" d="M1808.1,99.3h-16.9c-1.1,0-2-0.9-2-2V74c0-1.1,0.9-2,2-2h16.9c1.1,0,2,0.9,2,2v23.4
				C1810.1,98.4,1809.2,99.3,1808.1,99.3z M1793.2,95.3h12.9V76h-12.9V95.3z"/>
		</g>
	</g>
	<g>
		<g>
			<path class="st0" d="M1838.1,134.8h-16.9c-1.1,0-2-0.9-2-2v-23.4c0-1.1,0.9-2,2-2h16.9c1.1,0,2,0.9,2,2v23.4
				C1840.1,133.9,1839.2,134.8,1838.1,134.8z M1823.2,130.8h12.9v-19.4h-12.9V130.8z"/>
		</g>
		<g>
			<path class="st0" d="M1868.1,134.8h-16.9c-1.1,0-2-0.9-2-2v-23.4c0-1.1,0.9-2,2-2h16.9c1.1,0,2,0.9,2,2v23.4
				C1870.1,133.9,1869.2,134.8,1868.1,134.8z M1853.2,130.8h12.9v-19.4h-12.9V130.8z"/>
		</g>
		<g>
			<path class="st0" d="M1808.1,134.8h-16.9c-1.1,0-2-0.9-2-2v-23.4c0-1.1,0.9-2,2-2h16.9c1.1,0,2,0.9,2,2v23.4
				C1810.1,133.9,1809.2,134.8,1808.1,134.8z M1793.2,130.8h12.9v-19.4h-12.9V130.8z"/>
		</g>
	</g>
	<g>
		<g>
			<path class="st0" d="M1838.1,170.3h-16.9c-1.1,0-2-0.9-2-2v-23.4c0-1.1,0.9-2,2-2h16.9c1.1,0,2,0.9,2,2v23.4
				C1840.1,169.4,1839.2,170.3,1838.1,170.3z M1823.2,166.3h12.9v-19.4h-12.9V166.3z"/>
		</g>
		<g>
			<path class="st0" d="M1868.1,170.3h-16.9c-1.1,0-2-0.9-2-2v-23.4c0-1.1,0.9-2,2-2h16.9c1.1,0,2,0.9,2,2v23.4
				C1870.1,169.4,1869.2,170.3,1868.1,170.3z M1853.2,166.3h12.9v-19.4h-12.9V166.3z"/>
		</g>
		<g>
			<path class="st0" d="M1808.1,170.3h-16.9c-1.1,0-2-0.9-2-2v-23.4c0-1.1,0.9-2,2-2h16.9c1.1,0,2,0.9,2,2v23.4
				C1810.1,169.4,1809.2,170.3,1808.1,170.3z M1793.2,166.3h12.9v-19.4h-12.9V166.3z"/>
		</g>
	</g>
	<g>
		<g>
			<path class="st0" d="M1838.1,205.8h-16.9c-1.1,0-2-0.9-2-2v-23.4c0-1.1,0.9-2,2-2h16.9c1.1,0,2,0.9,2,2v23.4
				C1840.1,204.9,1839.2,205.8,1838.1,205.8z M1823.2,201.8h12.9v-19.4h-12.9V201.8z"/>
		</g>
		<g>
			<path class="st0" d="M1868.1,205.8h-16.9c-1.1,0-2-0.9-2-2v-23.4c0-1.1,0.9-2,2-2h16.9c1.1,0,2,0.9,2,2v23.4
				C1870.1,204.9,1869.2,205.8,1868.1,205.8z M1853.2,201.8h12.9v-19.4h-12.9V201.8z"/>
		</g>
		<g>
			<path class="st0" d="M1808.1,205.8h-16.9c-1.1,0-2-0.9-2-2v-23.4c0-1.1,0.9-2,2-2h16.9c1.1,0,2,0.9,2,2v23.4
				C1810.1,204.9,1809.2,205.8,1808.1,205.8z M1793.2,201.8h12.9v-19.4h-12.9V201.8z"/>
		</g>
	</g>
	<g>
		<g>
			<path class="st0" d="M1838.1,241.2h-14.7c-0.6,0-1.2-0.3-1.6-0.8l-0.7-1l-1-0.7c-0.6-0.4-0.9-1-0.9-1.7v-21.3c0-1.1,0.9-2,2-2
				h16.9c1.1,0,2,0.9,2,2v23.4C1840.1,240.4,1839.2,241.2,1838.1,241.2z M1824.4,237.2h11.7v-19.4h-12.9v18.2l0.4,0.3
				c0.2,0.1,0.4,0.3,0.5,0.5L1824.4,237.2z"/>
		</g>
		<g>
			<path class="st0" d="M1808.1,226.7c-1.1,0-2-0.9-2-2v-6.8h-14.9c-1.1,0-2-0.9-2-2s0.9-2,2-2h16.9c1.1,0,2,0.9,2,2v8.8
				C1810.1,225.8,1809.2,226.7,1808.1,226.7z"/>
		</g>
	</g>
</g>
<g>
	<g>
		<path class="st1" d="M1864.8,162.6c1.1-2.9,9.8-25.5,25.6-25c10.1,0.3,20.2,9.8,21,19.3c1,10.7-10.5,12.8-14.8,27.9
			c-4.6,16.1,3.1,32.8,7.4,42.1c7.1,15.2,12.7,16.1,13.1,25c0.5,13.2-11.4,28.1-26.2,31.8c-20.8,5.2-43.2-12.8-46.3-29.7
			c-3.2-17.5,16.3-22.7,19.5-51.6C1866.3,183.8,1859,178.2,1864.8,162.6z"/>
		<path class="st2" d="M1883.4,286.7c-7.3,0-14.9-2.3-21.9-6.9c-9.9-6.4-17.1-16.1-18.8-25.4c-1.7-9.4,2.5-15.5,7.4-22.5
			c5-7.2,10.6-15.3,12.2-29.6c0.9-7.9,0-13.5-0.8-18.4c-1-6.5-2-12.7,1.4-21.9c1.6-4.4,10.6-26.3,27-26.3c0.2,0,0.3,0,0.5,0
			c11.1,0.3,22,10.4,23,21.1c0.6,6.4-2.8,10.2-6.3,14.2c-3.1,3.5-6.6,7.6-8.6,14.3c-4.4,15.4,3.2,31.9,7.3,40.7
			c3.1,6.7,5.9,10.5,8.1,13.5c2.9,3.9,4.9,6.7,5.1,12.3c0.5,14.4-12.1,29.9-27.7,33.9C1888.8,286.3,1886.1,286.7,1883.4,286.7z
			 M1889.9,139.6c-13.8,0-21.8,19.7-23.2,23.7l0,0c-3.1,8.3-2.3,13.4-1.2,19.9c0.8,5.2,1.7,11,0.8,19.4
			c-1.7,15.3-7.9,24.2-12.8,31.4c-4.7,6.8-8.1,11.8-6.7,19.6c1.5,8.3,8,17,17,22.8c8.7,5.6,18.3,7.5,26.8,5.4
			c13.6-3.4,25.1-17.4,24.6-29.8c-0.2-4.3-1.7-6.3-4.4-10c-2.2-3-5.3-7.2-8.5-14.2c-4.3-9.3-12.3-26.6-7.5-43.5
			c2.2-7.6,6.2-12.2,9.4-15.9c3.3-3.8,5.7-6.6,5.3-11.3c-0.8-8.6-10.2-17.3-19.1-17.5C1890.2,139.6,1890,139.6,1889.9,139.6z
			 M1864.8,162.6L1864.8,162.6L1864.8,162.6z"/>
	</g>
	<g>
		<path class="st2" d="M1880.7,302c-1.1,0-2-0.9-2-2V183.7c0-1.1,0.9-2,2-2s2,0.9,2,2V300C1882.7,301.1,1881.8,302,1880.7,302z"/>
	</g>
	<g>
		<path class="st2" d="M1880.7,218.8c-0.6,0-1.2-0.3-1.6-0.7l-7.8-9.6c-0.7-0.9-0.6-2.1,0.3-2.8c0.9-0.7,2.1-0.6,2.8,0.3l7.8,9.6
			c0.7,0.9,0.6,2.1-0.3,2.8C1881.6,218.6,1881.1,218.8,1880.7,218.8z"/>
	</g>
	<g>
		<path class="st2" d="M1880.7,257.4c-0.5,0-1.1-0.2-1.4-0.6c-0.8-0.8-0.7-2.1,0.1-2.8l10.4-9.9c0.8-0.8,2.1-0.7,2.8,0.1
			c0.8,0.8,0.7,2.1-0.1,2.8l-10.4,9.9C1881.7,257.2,1881.2,257.4,1880.7,257.4z"/>
	</g>
</g>
<g>
	<path class="st3" d="M330.5,204h-14c-1.1,0-2-0.9-2-2v-20c0-1.1,0.9-2,2-2h14c1.1,0,2,0.9,2,2v20C332.5,203.1,331.6,204,330.5,204z
		 M318.5,200h10v-16h-10V200z"/>
</g>
<g>
	<path class="st3" d="M1599.4,302.4h-18.7c-1.1,0-2-0.9-2-2v-28c0-1.1,0.9-2,2-2h18.7c1.1,0,2,0.9,2,2v28
		C1601.4,301.5,1600.5,302.4,1599.4,302.4z M1582.7,298.4h14.7v-24h-14.7V298.4z"/>
</g>
<g>
	<path class="st3" d="M1753.5,302.5h-64c-1.1,0-2-0.9-2-2v-50c0-1.1,0.9-2,2-2h64c1.1,0,2,0.9,2,2v50
		C1755.5,301.6,1754.6,302.5,1753.5,302.5z M1691.5,298.5h60v-46h-60V298.5z"/>
</g>
<g>
	<path class="st3" d="M1681.5,256.5c-0.5,0-1-0.2-1.4-0.5c-0.8-0.8-0.8-2-0.1-2.8l37-39c0.4-0.4,0.9-0.6,1.4-0.6
		c0.6,0,1,0.2,1.4,0.6l40.4,38.4h74.2l-37.4-35.6c-0.8-0.8-0.8-2-0.1-2.8c0.8-0.8,2-0.8,2.8-0.1l41,39c0.6,0.6,0.8,1.4,0.5,2.2
		s-1,1.3-1.9,1.3h-80c-0.5,0-1-0.2-1.4-0.6l-39.5-37.6l-35.6,37.5C1682.5,256.3,1682,256.5,1681.5,256.5z"/>
</g>
<g>
	<path class="st3" d="M1798,217.5h-79.5c-1.1,0-2-0.9-2-2s0.9-2,2-2h79.5c1.1,0,2,0.9,2,2S1799.1,217.5,1798,217.5z"/>
</g>
<g>
	<path class="st3" d="M1808.8,288.4h-31.1c-1.1,0-2-0.9-2-2v-20.9c0-1.1,0.9-2,2-2h31.1c1.1,0,2,0.9,2,2v20.9
		C1810.8,287.5,1809.9,288.4,1808.8,288.4z M1779.7,284.4h27.1v-16.9h-27.1V284.4z"/>
</g>
<g>
	<path class="st3" d="M1724,302.5h-13c-1.1,0-2-0.9-2-2v-23c0-1.1,0.9-2,2-2h13c1.1,0,2,0.9,2,2v23
		C1726,301.6,1725.1,302.5,1724,302.5z M1713,298.5h9v-19h-9V298.5z"/>
</g>
<g>
	<path class="st3" d="M1829,302.5c-1.1,0-2-0.9-2-2v-45c0-1.1,0.9-2,2-2s2,0.9,2,2v45C1831,301.6,1830.1,302.5,1829,302.5z"/>
</g>
<g>
	<path class="st3" d="M1922,302.5h-790.2c-1.1,0-2-0.9-2-2s0.9-2,2-2H1922c1.1,0,2,0.9,2,2S1923.1,302.5,1922,302.5z"/>
</g>
<g>
	<path class="st3" d="M1116.4,302.5h-27.7c-1.1,0-2-0.9-2-2s0.9-2,2-2h27.7c1.1,0,2,0.9,2,2S1117.5,302.5,1116.4,302.5z"/>
</g>
<g>
	<path class="st3" d="M1075.5,302.5h-7.4c-1.1,0-2-0.9-2-2s0.9-2,2-2h7.4c1.1,0,2,0.9,2,2S1076.6,302.5,1075.5,302.5z"/>
</g>
<g>
	<path class="st3" d="M1030.5,302.5h-20.4c-1.1,0-2-0.9-2-2s0.9-2,2-2h20.4c1.1,0,2,0.9,2,2S1031.6,302.5,1030.5,302.5z"/>
</g>
<g>
	<path class="st3" d="M898.4,302.5H892c-1.1,0-2-0.9-2-2s0.9-2,2-2h6.4c1.1,0,2,0.9,2,2S899.5,302.5,898.4,302.5z"/>
</g>
<g>
	<path class="st3" d="M940.7,302.5h-11.4c-1.1,0-2-0.9-2-2s0.9-2,2-2h11.4c1.1,0,2,0.9,2,2S941.8,302.5,940.7,302.5z"/>
</g>
<g>
	<path class="st3" d="M1680.2,224.8c-0.4,0-0.8-0.1-1.1-0.4l-89-62.4l-89,62.4c-0.9,0.6-2.2,0.4-2.8-0.5c-0.6-0.9-0.4-2.2,0.5-2.8
		l90.1-63.2c0.7-0.5,1.6-0.5,2.3,0l90.1,63.2c0.9,0.6,1.1,1.9,0.5,2.8C1681.4,224.5,1680.8,224.8,1680.2,224.8z"/>
</g>
<g>
	<path class="st3" d="M1665.7,302.5h-151.4c-1.1,0-2-0.9-2-2v-87.8c0-1.1,0.9-2,2-2s2,0.9,2,2v85.8h147.4v-85.8c0-1.1,0.9-2,2-2
		s2,0.9,2,2v87.8C1667.7,301.6,1666.8,302.5,1665.7,302.5z"/>
</g>
<g>
	<path class="st3" d="M1590.1,211.8c-7.7,0-14-6.3-14-14s6.3-14,14-14s14,6.3,14,14S1597.8,211.8,1590.1,211.8z M1590.1,187.7
		c-5.5,0-10,4.5-10,10s4.5,10,10,10s10-4.5,10-10S1595.6,187.7,1590.1,187.7z"/>
</g>
<g>
	<path class="st3" d="M1636.6,260.2h-93.1c-1.1,0-2-0.9-2-2v-26.8c0-1.1,0.9-2,2-2h93.1c1.1,0,2,0.9,2,2v26.8
		C1638.6,259.3,1637.7,260.2,1636.6,260.2z M1545.5,256.2h89.1v-22.8h-89.1V256.2z"/>
</g>
<g>
	<g>
		<path class="st3" d="M1605.9,260.2c-1.1,0-2-0.9-2-2v-26.8c0-1.1,0.9-2,2-2s2,0.9,2,2v26.8C1607.9,259.3,1607,260.2,1605.9,260.2z
			"/>
	</g>
	<g>
		<path class="st3" d="M1574.2,260.2c-1.1,0-2-0.9-2-2v-26.8c0-1.1,0.9-2,2-2s2,0.9,2,2v26.8
			C1576.2,259.3,1575.3,260.2,1574.2,260.2z"/>
	</g>
</g>
<g>
	<g>
		<rect x="1451.5" y="251.2" class="st1" width="96.2" height="49.2"/>
		<path class="st3" d="M1547.7,302.4h-96.2c-1.1,0-2-0.9-2-2v-49.2c0-1.1,0.9-2,2-2h96.2c1.1,0,2,0.9,2,2v49.2
			C1549.7,301.5,1548.8,302.4,1547.7,302.4z M1453.5,298.4h92.2v-45.2h-92.2V298.4z"/>
	</g>
	<g>
		<polygon class="st1" points="1528.5,213.8 1528.5,251.2 1470.7,251.2 1470.7,213.8 1499.6,197.7 		"/>
		<path class="st3" d="M1528.5,253.2h-57.8c-1.1,0-2-0.9-2-2v-37.4c0-0.7,0.4-1.4,1-1.7l28.9-16.1c0.6-0.3,1.3-0.3,1.9,0l28.9,16.1
			c0.6,0.4,1,1,1,1.7v37.4C1530.5,252.3,1529.6,253.2,1528.5,253.2z M1472.7,249.2h53.8V215l-26.9-15l-26.9,15V249.2z"/>
	</g>
	<g>
		<path class="st3" d="M1538.5,221.3c-0.3,0-0.7-0.1-1-0.3l-37.9-21.1l-37.9,21.1c-1,0.5-2.2,0.2-2.7-0.8c-0.5-1-0.2-2.2,0.8-2.7
			l38.9-21.6c0.6-0.3,1.3-0.3,1.9,0l38.9,21.6c1,0.5,1.3,1.8,0.8,2.7C1539.9,221,1539.2,221.3,1538.5,221.3z"/>
	</g>
	<g>
		<path class="st3" d="M1531.5,302.5h-63.7c-1.1,0-2-0.9-2-2v-34c0-1.1,0.9-2,2-2h63.7c1.1,0,2,0.9,2,2v34
			C1533.5,301.6,1532.6,302.5,1531.5,302.5z M1469.7,298.5h59.7v-30h-59.7V298.5z"/>
	</g>
	<g>
		<path class="st3" d="M1531.5,280.5h-63.7c-1.1,0-2-0.9-2-2s0.9-2,2-2h63.7c1.1,0,2,0.9,2,2S1532.6,280.5,1531.5,280.5z"/>
	</g>
	<g>
		<path class="st3" d="M1531.5,292h-63.7c-1.1,0-2-0.9-2-2s0.9-2,2-2h63.7c1.1,0,2,0.9,2,2S1532.6,292,1531.5,292z"/>
	</g>
	<g>
		<path class="st3" d="M1514.4,243.5h-29.6c-1.1,0-2-0.9-2-2v-22.2c0-1.1,0.9-2,2-2h29.6c1.1,0,2,0.9,2,2v22.2
			C1516.4,242.6,1515.5,243.5,1514.4,243.5z M1486.8,239.5h25.6v-18.2h-25.6V239.5z"/>
	</g>
</g>
<g>
	<g>
		<path class="st2" d="M94.3,302.6H5c-1.1,0-2-0.9-2-2V146c0-1.1,0.9-2,2-2h89.3c1.1,0,2,0.9,2,2v154.6
			C96.3,301.8,95.4,302.6,94.3,302.6z M7,298.6h85.3V148H7V298.6z"/>
	</g>
	<g>
		<path class="st2" d="M138,302.6H68.2c-1.1,0-2-0.9-2-2s0.9-2,2-2H138c1.1,0,2,0.9,2,2S139.1,302.6,138,302.6z"/>
	</g>
	<g>
		<path class="st2" d="M162.5,200.2c-1.1,0-2-0.9-2-2v-96l-82.3-38V146c0,1.1-0.9,2-2,2s-2-0.9-2-2V61.1c0-0.7,0.3-1.3,0.9-1.7
			s1.3-0.4,1.9-0.1L163.3,99c0.7,0.3,1.2,1,1.2,1.8v97.3C164.5,199.3,163.6,200.2,162.5,200.2z"/>
	</g>
	<g>
		<path class="st2" d="M83.1,174.2h-67c-1.1,0-2-0.9-2-2s0.9-2,2-2h67c1.1,0,2,0.9,2,2S84.2,174.2,83.1,174.2z"/>
	</g>
	<g>
		<path class="st2" d="M83.1,194.2h-67c-1.1,0-2-0.9-2-2s0.9-2,2-2h67c1.1,0,2,0.9,2,2S84.2,194.2,83.1,194.2z"/>
	</g>
	<g>
		<path class="st2" d="M83.1,214.2h-67c-1.1,0-2-0.9-2-2s0.9-2,2-2h67c1.1,0,2,0.9,2,2S84.2,214.2,83.1,214.2z"/>
	</g>
	<g>
		<path class="st2" d="M83.1,234.2h-67c-1.1,0-2-0.9-2-2s0.9-2,2-2h67c1.1,0,2,0.9,2,2S84.2,234.2,83.1,234.2z"/>
	</g>
	<g>
		<path class="st2" d="M83.1,254.2h-67c-1.1,0-2-0.9-2-2s0.9-2,2-2h67c1.1,0,2,0.9,2,2S84.2,254.2,83.1,254.2z"/>
	</g>
	<g>
		<path class="st2" d="M83.1,274.2h-67c-1.1,0-2-0.9-2-2s0.9-2,2-2h67c1.1,0,2,0.9,2,2S84.2,274.2,83.1,274.2z"/>
	</g>
	<g>
		<path class="st2" d="M107.3,302c-1.1,0-2-0.9-2-2V77.5c0-1.1,0.9-2,2-2s2,0.9,2,2V300C109.3,301.1,108.4,302,107.3,302z"/>
	</g>
	<g>
		<path class="st2" d="M135,232.5c-1.1,0-2-0.9-2-2V89c0-1.1,0.9-2,2-2s2,0.9,2,2v141.5C137,231.6,136.1,232.5,135,232.5z"/>
	</g>
	<g>
		<path class="st2" d="M135,98.7H76.2c-1.1,0-2-0.9-2-2s0.9-2,2-2H135c1.1,0,2,0.9,2,2S136.1,98.7,135,98.7z"/>
	</g>
	<g>
		<path class="st2" d="M156.1,116.9H76.2c-1.1,0-2-0.9-2-2s0.9-2,2-2h79.9c1.1,0,2,0.9,2,2S157.2,116.9,156.1,116.9z"/>
	</g>
	<g>
		<path class="st2" d="M162.5,135.9H76.2c-1.1,0-2-0.9-2-2s0.9-2,2-2h86.3c1.1,0,2,0.9,2,2S163.6,135.9,162.5,135.9z"/>
	</g>
	<g>
		<path class="st2" d="M162.5,154.8H94.3c-1.1,0-2-0.9-2-2s0.9-2,2-2h68.2c1.1,0,2,0.9,2,2S163.6,154.8,162.5,154.8z"/>
	</g>
	<g>
		<path class="st2" d="M162.5,174.2H94.3c-1.1,0-2-0.9-2-2s0.9-2,2-2h68.2c1.1,0,2,0.9,2,2S163.6,174.2,162.5,174.2z"/>
	</g>
	<g>
		<path class="st2" d="M162.5,192H94.3c-1.1,0-2-0.9-2-2s0.9-2,2-2h68.2c1.1,0,2,0.9,2,2S163.6,192,162.5,192z"/>
	</g>
	<g>
		<path class="st2" d="M154.5,209.1H94.3c-1.1,0-2-0.9-2-2s0.9-2,2-2h60.2c1.1,0,2,0.9,2,2S155.6,209.1,154.5,209.1z"/>
	</g>
	<g>
		<path class="st2" d="M142.5,225H94.3c-1.1,0-2-0.9-2-2s0.9-2,2-2h48.2c1.1,0,2,0.9,2,2S143.6,225,142.5,225z"/>
	</g>
	<g>
		<path class="st2" d="M129.3,240.8h-35c-1.1,0-2-0.9-2-2s0.9-2,2-2h35c1.1,0,2,0.9,2,2S130.4,240.8,129.3,240.8z"/>
	</g>
	<g>
		<path class="st2" d="M135,257.5H94.3c-1.1,0-2-0.9-2-2s0.9-2,2-2H135c1.1,0,2,0.9,2,2S136.1,257.5,135,257.5z"/>
	</g>
	<g>
		<path class="st2" d="M135,272.5H94.3c-1.1,0-2-0.9-2-2s0.9-2,2-2H135c1.1,0,2,0.9,2,2S136.1,272.5,135,272.5z"/>
	</g>
	<g>
		<path class="st2" d="M135,288.3H94.3c-1.1,0-2-0.9-2-2s0.9-2,2-2H135c1.1,0,2,0.9,2,2S136.1,288.3,135,288.3z"/>
	</g>
</g>
<g>
	<path class="st3" d="M376.5,207c-0.5,0-1.1-0.2-1.5-0.6l-51.5-55.4L271,206.4c-0.8,0.8-2,0.8-2.8,0.1c-0.8-0.8-0.8-2-0.1-2.8l54-57
		c0.4-0.4,0.9-0.6,1.5-0.6c0,0,0,0,0,0c0.6,0,1.1,0.2,1.5,0.6l53,57c0.8,0.8,0.7,2.1-0.1,2.8C377.5,206.8,377,207,376.5,207z"/>
</g>
<g>
	<g>
		<path class="st3" d="M311.8,248h-18c-1.1,0-2-0.9-2-2v-18c0-1.1,0.9-2,2-2h18c1.1,0,2,0.9,2,2v18C313.8,247.1,312.9,248,311.8,248
			z M295.8,244h14v-14h-14V244z"/>
	</g>
	<g>
		<path class="st3" d="M352.3,248h-18c-1.1,0-2-0.9-2-2v-18c0-1.1,0.9-2,2-2h18c1.1,0,2,0.9,2,2v18C354.3,247.1,353.4,248,352.3,248
			z M336.3,244h14v-14h-14V244z"/>
	</g>
</g>
<g>
	<path class="st3" d="M296,302.5h-21.5c-1.1,0-2-0.9-2-2V199.7c0-1.1,0.9-2,2-2s2,0.9,2,2v98.8H296c1.1,0,2,0.9,2,2
		S297.1,302.5,296,302.5z"/>
</g>
<g>
	<path class="st3" d="M371.5,238.8c-1.1,0-2-0.9-2-2v-37.1c0-1.1,0.9-2,2-2s2,0.9,2,2v37.1C373.5,237.9,372.6,238.8,371.5,238.8z"/>
</g>
<g>
	<g>
		<path class="st3" d="M407.2,302.5h-60c-1.1,0-2-0.9-2-2v-36c0-1.1,0.9-2,2-2h60c1.1,0,2,0.9,2,2v36
			C409.2,301.6,408.3,302.5,407.2,302.5z M349.2,298.5h56v-32h-56V298.5z"/>
	</g>
	<g>
		<path class="st3" d="M491.2,302.5c-1.1,0-2-0.9-2-2V271c0-1.1,0.9-2,2-2s2,0.9,2,2v29.5C493.2,301.6,492.3,302.5,491.2,302.5z"/>
	</g>
	<g>
		<path class="st3" d="M341.2,272.5c-0.5,0-1-0.2-1.3-0.5c-0.8-0.7-0.9-2-0.1-2.8l36-40c0,0,0,0,0,0c0,0,0,0,0,0c0,0,0,0,0,0
			c0,0,0,0,0,0c0,0,0,0,0,0l0,0c0,0,0.1-0.1,0.1-0.1c0,0,0,0,0,0c0,0,0,0,0,0h0c0.4-0.3,0.8-0.5,1.3-0.5c0,0,0,0,0,0h82
			c0.5,0,1.1,0.2,1.5,0.6l38,40c0.6,0.6,0.7,1.4,0.4,2.2s-1,1.2-1.8,1.2h-83c-0.6,0-1.1-0.2-1.5-0.6l-35.5-38.4l-34.5,38.4
			C342.3,272.3,341.7,272.5,341.2,272.5z M415,268.5h77.5l-34.2-36h-76.6L415,268.5z"/>
	</g>
	<g>
		<path class="st3" d="M471.7,272.5c-0.5,0-1.1-0.2-1.5-0.6l-38-40c-0.8-0.8-0.7-2.1,0.1-2.8c0.8-0.8,2.1-0.7,2.8,0.1l38,40
			c0.8,0.8,0.7,2.1-0.1,2.8C472.7,272.3,472.2,272.5,471.7,272.5z"/>
	</g>
	<g>
		<path class="st3" d="M442.7,272.5c-0.5,0-1.1-0.2-1.5-0.6l-38-40c-0.8-0.8-0.7-2.1,0.1-2.8c0.8-0.8,2.1-0.7,2.8,0.1l38,40
			c0.8,0.8,0.7,2.1-0.1,2.8C443.7,272.3,443.2,272.5,442.7,272.5z"/>
	</g>
	<g>
		<path class="st3" d="M383.2,302.5h-13c-1.1,0-2-0.9-2-2v-23c0-1.1,0.9-2,2-2h13c1.1,0,2,0.9,2,2v23
			C385.2,301.6,384.3,302.5,383.2,302.5z M372.2,298.5h9v-19h-9V298.5z"/>
	</g>
	<g>
		<path class="st3" d="M466.2,293.5h-11c-1.1,0-2-0.9-2-2v-13c0-1.1,0.9-2,2-2h11c1.1,0,2,0.9,2,2v13
			C468.2,292.6,467.3,293.5,466.2,293.5z M457.2,289.5h7v-9h-7V289.5z"/>
	</g>
</g>
<g>
	<path class="st3" d="M274.5,302.5h-64c-1.1,0-2-0.9-2-2v-60c0-1.1,0.9-2,2-2h64c1.1,0,2,0.9,2,2v60
		C276.5,301.6,275.6,302.5,274.5,302.5z M212.5,298.5h60v-56h-60V298.5z"/>
</g>
<g>
	<path class="st3" d="M282.5,246.5c-0.6,0-1.2-0.3-1.6-0.8l-35.5-47L206,245.8c-0.4,0.5-0.9,0.7-1.5,0.7h-80c-0.8,0-1.5-0.4-1.8-1.2
		c-0.3-0.7-0.2-1.5,0.3-2.1l41-49c0.7-0.8,2-1,2.8-0.3c0.8,0.7,1,2,0.3,2.8l-38.3,45.7h74.8l40.4-48.3c0.4-0.5,1-0.7,1.6-0.7
		c0.6,0,1.2,0.3,1.5,0.8l37,49c0.7,0.9,0.5,2.1-0.4,2.8C283.3,246.4,282.9,246.5,282.5,246.5z"/>
</g>
<g>
	<path class="st3" d="M150.5,246.5c-0.5,0-0.9-0.2-1.3-0.5c-0.8-0.7-1-2-0.3-2.8l41-49c0.7-0.8,2-1,2.8-0.3c0.8,0.7,1,2,0.3,2.8
		l-41,49C151.6,246.3,151.1,246.5,150.5,246.5z"/>
</g>
<g>
	<path class="st3" d="M175.5,246.5c-0.5,0-0.9-0.2-1.3-0.5c-0.8-0.7-1-2-0.3-2.8l41-49c0.7-0.8,2-1,2.8-0.3c0.8,0.7,1,2,0.3,2.8
		l-41,49C176.6,246.3,176.1,246.5,175.5,246.5z"/>
</g>
<g>
	<path class="st3" d="M245.5,197.5H166c-1.1,0-2-0.9-2-2s0.9-2,2-2h79.5c1.1,0,2,0.9,2,2S246.6,197.5,245.5,197.5z"/>
</g>
<g>
	<path class="st3" d="M244.5,229.5c-4.7,0-8.5-3.8-8.5-8.5s3.8-8.5,8.5-8.5s8.5,3.8,8.5,8.5S249.2,229.5,244.5,229.5z M244.5,216.5
		c-2.5,0-4.5,2-4.5,4.5s2,4.5,4.5,4.5s4.5-2,4.5-4.5S247,216.5,244.5,216.5z"/>
</g>
<g>
	<path class="st3" d="M163,272.5h-17c-1.1,0-2-0.9-2-2v-15c0-1.1,0.9-2,2-2h17c1.1,0,2,0.9,2,2v15C165,271.6,164.1,272.5,163,272.5z
		 M148,268.5h13v-11h-13V268.5z"/>
</g>
<g>
	<path class="st3" d="M236,266.5h-11c-1.1,0-2-0.9-2-2v-15c0-1.1,0.9-2,2-2h11c1.1,0,2,0.9,2,2v15C238,265.6,237.1,266.5,236,266.5z
		 M227,262.5h7v-11h-7V262.5z"/>
</g>
<g>
	<path class="st3" d="M264,266.5h-11c-1.1,0-2-0.9-2-2v-15c0-1.1,0.9-2,2-2h11c1.1,0,2,0.9,2,2v15C266,265.6,265.1,266.5,264,266.5z
		 M255,262.5h7v-11h-7V262.5z"/>
</g>
<g>
	<path class="st3" d="M253,302.5h-13c-1.1,0-2-0.9-2-2v-23c0-1.1,0.9-2,2-2h13c1.1,0,2,0.9,2,2v23C255,301.6,254.1,302.5,253,302.5z
		 M242,298.5h9v-19h-9V298.5z"/>
</g>
<g>
	<path class="st3" d="M329.5,302.5h-13c-1.1,0-2-0.9-2-2v-23c0-1.1,0.9-2,2-2h13c1.1,0,2,0.9,2,2v23
		C331.5,301.6,330.6,302.5,329.5,302.5z M318.5,298.5h9v-19h-9V298.5z"/>
</g>
<g>
	<path class="st3" d="M135,302.5c-1.1,0-2-0.9-2-2v-55c0-1.1,0.9-2,2-2s2,0.9,2,2v55C137,301.6,136.1,302.5,135,302.5z"/>
</g>
<g>
	<circle class="st1" cx="97.3" cy="260.2" r="19.8"/>
	<path class="st3" d="M97.3,282c-12,0-21.8-9.8-21.8-21.8s9.8-21.8,21.8-21.8s21.8,9.8,21.8,21.8S109.2,282,97.3,282z M97.3,242.5
		c-9.8,0-17.8,8-17.8,17.8s8,17.8,17.8,17.8s17.8-8,17.8-17.8S107,242.5,97.3,242.5z"/>
</g>
<g>
	<path class="st3" d="M97.3,302.5c-1.1,0-2-0.9-2-2v-22.6l-6.2-16.9c-0.4-1,0.2-2.2,1.2-2.6c1-0.4,2.2,0.2,2.6,1.2l6.3,17.3
		c0.1,0.2,0.1,0.5,0.1,0.7v23C99.3,301.6,98.4,302.5,97.3,302.5z"/>
</g>
<g>
	<path class="st3" d="M95.4,269.1c-0.5,0-1-0.2-1.4-0.6c-0.8-0.8-0.8-2,0-2.8l8.8-8.8c0.8-0.8,2-0.8,2.8,0s0.8,2,0,2.8l-8.8,8.8
		C96.4,268.9,95.9,269.1,95.4,269.1z"/>
</g>
<g>
	<g>
		<path class="st1" d="M304.8,290.2c-1,0-1.9,0.1-2.8,0.4c-1.5-5.5-6.5-9.6-12.5-9.6c-6.1,0-11.3,4.3-12.6,10
			c-1.6-1.1-3.5-1.8-5.6-1.8c-5.2,0-9.5,4.2-9.5,9.5c0,0.7,0.1,1.4,0.2,2.1h53.4C315.4,294.8,310.6,290.2,304.8,290.2z"/>
		<path class="st3" d="M315.5,302.6h-53.4c-0.9,0-1.7-0.7-2-1.6c-0.2-0.8-0.3-1.7-0.3-2.5c0-6.3,5.1-11.5,11.5-11.5
			c1.5,0,3,0.3,4.4,0.9c2.3-5.4,7.7-9.1,13.8-9.1c6.1,0,11.6,3.7,13.8,9.3c0.5-0.1,1-0.1,1.4-0.1c6.9,0,12.6,5.6,12.7,12.4
			c0,0.5-0.2,1.1-0.6,1.4C316.6,302.4,316,302.6,315.5,302.6z M263.9,298.6h49.4c-1.2-4.4-5.8-7.5-10.7-6.2
			c-1.1,0.3-2.2-0.3-2.4-1.4c-1.3-4.8-5.7-8.1-10.6-8.1c-5.1,0-9.5,3.5-10.7,8.5c-0.2,0.7-0.6,1.2-1.3,1.4c-0.6,0.2-1.3,0.1-1.9-0.3
			c-1.3-0.9-2.8-1.4-4.4-1.4C267.2,291.1,263.9,294.5,263.9,298.6C263.9,298.6,263.9,298.6,263.9,298.6z"/>
	</g>
</g>
<g>
	<g>
		<path class="st1" d="M531.2,289.3c0-9-7.3-16.3-16.3-16.3c-9,0-16.3,7.3-16.3,16.3c0,4.1,1.5,7.8,4,10.6h24.6
			C529.7,297.1,531.2,293.4,531.2,289.3z"/>
		<path class="st3" d="M527.3,302h-24.6c-0.6,0-1.1-0.3-1.5-0.7c-2.9-3.3-4.5-7.6-4.5-12c0-10.1,8.2-18.3,18.3-18.3
			s18.3,8.2,18.3,18.3c0,4.4-1.6,8.6-4.5,12C528.4,301.7,527.8,302,527.3,302z M503.6,298h22.7c1.9-2.5,2.9-5.5,2.9-8.6
			c0-7.9-6.4-14.3-14.3-14.3s-14.3,6.4-14.3,14.3C500.7,292.5,501.7,295.5,503.6,298z"/>
	</g>
</g>
<g>
	<line class="st1" x1="512" y1="300" x2="523.1" y2="285.5"/>
	<path class="st3" d="M512,302c-0.4,0-0.9-0.1-1.2-0.4c-0.9-0.7-1-1.9-0.4-2.8l11.1-14.5c0.7-0.9,1.9-1,2.8-0.4
		c0.9,0.7,1,1.9,0.4,2.8l-11.1,14.5C513.2,301.7,512.6,302,512,302z"/>
</g>
<g>
	<path class="st2" d="M556.6,284.5c-3.5,0-7-0.9-10.3-2.8c-4.5-2.5-7.6-6.2-8.5-10v0c-0.9-3.8,0.8-6.5,2.3-9.1
		c1.4-2.4,2.9-4.8,2.8-8.6c-0.1-3.7-1.6-5.6-3.4-8.1c-1.8-2.4-3.9-5.1-4.9-9.8c-1.1-5.5,0.4-8.8,2.3-12.9c1.5-3.1,3.3-7.1,4.5-13.4
		c1.3-7.3,0.9-12.8,0.6-16.8c-0.4-4.8-0.6-8.6,2.8-11.1c2.2-1.6,5.2-2.1,8.7-1.6c5.6,0.9,11.2,4.3,14.4,8.8
		c4.6,6.5,3.5,13.8,1.9,24.9c-1.1,7.5-2.7,12-3.9,15.3c-1.3,3.7-2.1,5.8-1.4,9.6c0.8,4.6,2.9,7.1,5,9.6c2.4,2.9,4.9,5.8,5.4,11.4
		c0.7,7.2-2.2,19.9-12.8,23.5C560.4,284.2,558.5,284.5,556.6,284.5z M550.9,184.2c-1.6,0-2.8,0.3-3.8,1c-1.5,1.1-1.5,2.7-1.1,7.6
		c0.3,4.2,0.7,10-0.7,17.8c-1.3,6.9-3.2,11-4.8,14.4c-1.8,3.8-2.9,6.2-2,10.4c0.7,3.8,2.4,5.9,4.1,8.2c2,2.7,4.2,5.4,4.3,10.4
		c0.1,4.9-1.9,8.2-3.4,10.7c-1.5,2.5-2.3,4-1.8,6.1c0,0,0,0,0,0c0.6,2.7,3.1,5.5,6.6,7.4c4.2,2.3,8.8,2.9,12.8,1.6
		c8-2.7,10.8-12.9,10.1-19.3c-0.4-4.3-2.3-6.6-4.5-9.2c-2.3-2.7-4.9-5.8-5.9-11.5c-0.9-4.9,0.1-7.7,1.5-11.7
		c1.2-3.3,2.6-7.4,3.7-14.5c1.5-10.5,2.5-16.9-1.2-22c-2.6-3.6-7.3-6.5-11.8-7.2C552.2,184.2,551.5,184.2,550.9,184.2z"/>
</g>
<g>
	<line class="st1" x1="517.5" y1="292.8" x2="508.2" y2="287.4"/>
	<path class="st3" d="M517.5,294.8c-0.3,0-0.7-0.1-1-0.3l-9.4-5.3c-1-0.5-1.3-1.8-0.8-2.7s1.8-1.3,2.7-0.8l9.4,5.3
		c1,0.5,1.3,1.8,0.8,2.7C518.9,294.4,518.2,294.8,517.5,294.8z"/>
</g>
<g>
	<path class="st2" d="M555.2,302c-1.1,0-2-0.9-2-2v-36.4l-4.2-7.1c-0.6-1-0.2-2.2,0.7-2.7c1-0.6,2.2-0.2,2.7,0.7l4.4,7.5
		c0.2,0.3,0.3,0.7,0.3,1V300C557.2,301.1,556.3,302,555.2,302z"/>
</g>
<g>
	<path class="st3" d="M875.9,302.5h-28.8c-1.1,0-2-0.9-2-2s0.9-2,2-2h28.8c1.1,0,2,0.9,2,2S877,302.5,875.9,302.5z"/>
</g>
<g>
	<path class="st3" d="M825.6,302.5H2c-1.1,0-2-0.9-2-2s0.9-2,2-2h823.6c1.1,0,2,0.9,2,2S826.7,302.5,825.6,302.5z"/>
</g>
<g>
	<path class="st2" d="M555.2,265.1c-0.1,0-0.3,0-0.4,0c-1.1-0.2-1.8-1.3-1.5-2.4l2.7-12.6c0.2-1.1,1.3-1.8,2.4-1.5
		c1.1,0.2,1.8,1.3,1.5,2.4l-2.7,12.6C556.9,264.4,556.1,265.1,555.2,265.1z"/>
</g>
<g>
	<g>
		<path class="st3" d="M724.6,214.2h-20.1c-1.1,0-2-0.9-2-2s0.9-2,2-2h20.1c1.1,0,2,0.9,2,2S725.7,214.2,724.6,214.2z"/>
	</g>
	<g>
		<path class="st3" d="M693.2,214.2h-98.9c-1.1,0-2-0.9-2-2s0.9-2,2-2h98.9c1.1,0,2,0.9,2,2S694.3,214.2,693.2,214.2z"/>
	</g>
	<g>
		<path class="st3" d="M601.3,285.1h-14c-1.1,0-2-0.9-2-2v-20c0-1.1,0.9-2,2-2h14c1.1,0,2,0.9,2,2v20
			C603.3,284.2,602.4,285.1,601.3,285.1z M589.3,281.1h10v-16h-10V281.1z"/>
	</g>
	<g>
		<path class="st3" d="M659,277.5h-18c-1.1,0-2-0.9-2-2v-18c0-1.1,0.9-2,2-2h18c1.1,0,2,0.9,2,2v18C661,276.6,660.1,277.5,659,277.5
			z M643,273.5h14v-14h-14V273.5z"/>
	</g>
	<g>
		<path class="st3" d="M722.5,277.5h-18c-1.1,0-2-0.9-2-2v-18c0-1.1,0.9-2,2-2h18c1.1,0,2,0.9,2,2v18
			C724.5,276.6,723.6,277.5,722.5,277.5z M706.5,273.5h14v-14h-14V273.5z"/>
	</g>
	<g>
		<path class="st3" d="M688.5,302.5h-13c-1.1,0-2-0.9-2-2v-23c0-1.1,0.9-2,2-2h13c1.1,0,2,0.9,2,2v23
			C690.5,301.6,689.6,302.5,688.5,302.5z M677.5,298.5h9v-19h-9V298.5z"/>
	</g>
	<g>
		<path class="st3" d="M615.5,302c-1.1,0-2-0.9-2-2l-0.5-62.9c0-1.1,0.9-2,2-2c1.1,0,2,0.9,2,2l0.5,62.9
			C617.5,301.1,616.6,302,615.5,302C615.5,302,615.5,302,615.5,302z"/>
	</g>
	<g>
		<path class="st3" d="M704.5,222.5c-1.1,0-2-0.9-2-2v-15h-7.3v15c0,1.1-0.9,2-2,2s-2-0.9-2-2v-17c0-1.1,0.9-2,2-2h11.3
			c1.1,0,2,0.9,2,2v17C706.5,221.6,705.6,222.5,704.5,222.5z"/>
	</g>
	<g>
		<g>
			<path class="st3" d="M700.5,197.5c-1.1,0-2-0.9-2-2c0-7.5,6.1-13.6,13.6-13.6c1.1,0,2,0.9,2,2s-0.9,2-2,2c-5.3,0-9.6,4.3-9.6,9.6
				C702.5,196.6,701.6,197.5,700.5,197.5z"/>
		</g>
		<g>
			<path class="st3" d="M712.1,185.9c-1.1,0-2-0.9-2-2s0.9-2,2-2c5.3,0,9.6-4.3,9.6-9.6c0-1.1,0.9-2,2-2s2,0.9,2,2
				C725.8,179.8,719.7,185.9,712.1,185.9z"/>
		</g>
	</g>
	<g>
		<path class="st3" d="M594.3,246.5c-4.7,0-8.4-3.8-8.4-8.4s3.8-8.4,8.4-8.4s8.4,3.8,8.4,8.4S599,246.5,594.3,246.5z M594.3,233.7
			c-2.4,0-4.4,2-4.4,4.4s2,4.4,4.4,4.4s4.4-2,4.4-4.4S596.8,233.7,594.3,233.7z"/>
	</g>
	<g>
		<path class="st3" d="M565.1,247.6c-0.5,0-0.9-0.2-1.3-0.5c-0.8-0.7-0.9-2-0.2-2.8l29.3-33.4c0.4-0.4,1-0.7,1.5-0.7
			c0.6,0,1.1,0.3,1.5,0.7l27.2,32.7h125.1l-25-30.1c-0.7-0.8-0.6-2.1,0.3-2.8c0.8-0.7,2.1-0.6,2.8,0.3l27.8,33.4
			c0.5,0.6,0.6,1.4,0.3,2.1c-0.3,0.7-1,1.2-1.8,1.2H622.1c-0.6,0-1.2-0.3-1.5-0.7l-26.3-31.6l-27.7,31.6
			C566.2,247.4,565.6,247.6,565.1,247.6z"/>
	</g>
	<g>
		<path class="st3" d="M740.3,302H574.2c-1.1,0-2-0.9-2-2v-62.9c0-1.1,0.9-2,2-2s2,0.9,2,2V298h162.1v-52.4c0-1.1,0.9-2,2-2
			s2,0.9,2,2V300C742.3,301.1,741.4,302,740.3,302z"/>
	</g>
</g>
<g>
	<g>
		<path class="st1" d="M769.9,294.9c0-6.7-5.4-12.1-12.1-12.1c-1.7,0-3.3,0.3-4.7,1c-2.7-4.9-7.9-8.2-13.8-8.2
			c-7,0-12.9,4.6-15,10.9c-1.3-0.5-2.6-0.7-4-0.7c-6.6,0-11.9,5.3-11.9,11.9c0,0.8,0.1,1.6,0.3,2.4h60.1
			C769.5,298.4,769.9,296.7,769.9,294.9z"/>
		<path class="st3" d="M768.8,302h-60.1c-0.9,0-1.8-0.7-2-1.6c-0.2-0.9-0.3-1.9-0.3-2.8c0-7.6,6.2-13.9,13.9-13.9
			c0.9,0,1.9,0.1,2.8,0.3c2.8-6.3,9.1-10.5,16.2-10.5c5.9,0,11.4,2.9,14.7,7.7c1.3-0.4,2.5-0.5,3.9-0.5c7.8,0,14.1,6.3,14.1,14.1
			c0,2.1-0.5,4.1-1.3,6C770.3,301.5,769.5,302,768.8,302z M710.4,298h57c0.3-1,0.5-2.1,0.5-3.1c0-5.6-4.6-10.1-10.1-10.1
			c-1.4,0-2.7,0.3-3.9,0.8c-0.9,0.4-2,0-2.5-0.9c-2.4-4.4-7-7.1-12-7.1c-6,0-11.2,3.8-13.1,9.5c-0.2,0.5-0.5,0.9-1,1.2
			c-0.5,0.2-1.1,0.3-1.6,0.1c-1.1-0.4-2.2-0.6-3.3-0.6c-5.4,0-9.9,4.4-9.9,9.9C710.4,297.7,710.4,297.8,710.4,298z"/>
	</g>
</g>
<g>
	<g>
		<path class="st1" d="M1423.2,296c0-5.6,4.5-10.1,10.1-10.1c1.4,0,2.7,0.3,3.9,0.8c2.2-4,6.5-6.8,11.5-6.8c5.8,0,10.8,3.8,12.5,9.1
			c1-0.4,2.2-0.6,3.3-0.6c5.4,0,9.9,4.4,9.9,9.9c0,0.7-0.1,1.4-0.2,2h-50C1423.5,299,1423.2,297.6,1423.2,296z"/>
		<path class="st3" d="M1474.1,302.3h-50c-0.8,0-1.5-0.4-1.8-1.2c-0.8-1.6-1.1-3.3-1.1-5.1c0-6.7,5.4-12.1,12.1-12.1
			c1,0,2.1,0.1,3.1,0.4c2.8-4,7.4-6.4,12.3-6.4c5.9,0,11.2,3.4,13.7,8.7c0.7-0.1,1.4-0.2,2.1-0.2c6.5,0,11.9,5.3,11.9,11.9
			c0,0.8-0.1,1.6-0.2,2.4C1475.9,301.6,1475.1,302.3,1474.1,302.3z M1425.5,298.3h46.8c0,0,0,0,0,0c0-4.3-3.5-7.9-7.9-7.9
			c-0.9,0-1.8,0.2-2.7,0.5c-0.5,0.2-1.1,0.2-1.6-0.1c-0.5-0.2-0.9-0.7-1-1.2c-1.5-4.6-5.7-7.7-10.5-7.7c-4,0-7.8,2.2-9.7,5.7
			c-0.5,0.9-1.6,1.3-2.5,0.9c-1-0.4-2.1-0.6-3.1-0.6c-4.5,0-8.1,3.6-8.1,8.1C1425.2,296.8,1425.3,297.6,1425.5,298.3z"/>
	</g>
</g>
<g>
	<circle class="st1" cx="1844.3" cy="270" r="18.5"/>
	<path class="st3" d="M1844.3,290.5c-11.3,0-20.5-9.2-20.5-20.5c0-11.3,9.2-20.5,20.5-20.5s20.5,9.2,20.5,20.5
		C1864.8,281.3,1855.6,290.5,1844.3,290.5z M1844.3,253.5c-9.1,0-16.5,7.4-16.5,16.5s7.4,16.5,16.5,16.5c9.1,0,16.5-7.4,16.5-16.5
		S1853.4,253.5,1844.3,253.5z"/>
</g>
<g>
	<line class="st1" x1="1844.3" y1="263" x2="1844.3" y2="300.3"/>
	<path class="st3" d="M1844.3,302.3c-1.1,0-2-0.9-2-2V263c0-1.1,0.9-2,2-2s2,0.9,2,2v37.3C1846.3,301.4,1845.4,302.3,1844.3,302.3z"
		/>
</g>
<g>
	<line class="st1" x1="1844.3" y1="277.3" x2="1836" y2="273.5"/>
	<path class="st3" d="M1844.3,279.3c-0.3,0-0.6-0.1-0.8-0.2l-8.3-3.8c-1-0.5-1.4-1.6-1-2.7c0.5-1,1.6-1.4,2.7-1l8.3,3.8
		c1,0.5,1.4,1.6,1,2.7C1845.8,278.9,1845.1,279.3,1844.3,279.3z"/>
</g>
<g>
	<line class="st1" x1="1844.3" y1="273.5" x2="1853.7" y2="267"/>
	<path class="st3" d="M1844.3,275.5c-0.6,0-1.3-0.3-1.6-0.9c-0.6-0.9-0.4-2.2,0.5-2.8l9.4-6.5c0.9-0.6,2.2-0.4,2.8,0.5
		c0.6,0.9,0.4,2.2-0.5,2.8l-9.4,6.5C1845.1,275.4,1844.7,275.5,1844.3,275.5z"/>
</g>
<g>
	<path class="st3" d="M282.5,191.6c-1.1,0-2-0.9-2-2v-26.3c0-1.1,0.9-2,2-2h14.9c1.1,0,2,0.9,2,2v12.2c0,1.1-0.9,2-2,2s-2-0.9-2-2
		v-10.2h-10.9v24.3C284.5,190.8,283.6,191.6,282.5,191.6z"/>
</g>
<g>
	<g>
		<path class="st1" d="M1693.5,297c0-6.4-5.1-11.5-11.5-11.5c-1,0-2.1,0.2-3,0.4c-2.8-4.5-7.8-7.4-13.5-7.4c-8.8,0-16,7.2-16,16
			c0,2.1,0.4,4.1,1.2,6h42.3C1693.3,299.4,1693.5,298.2,1693.5,297z"/>
		<path class="st3" d="M1692.9,302.5h-42.3c-0.8,0-1.5-0.5-1.9-1.2c-0.9-2.2-1.3-4.4-1.3-6.8c0-9.9,8.1-18,18-18
			c5.7,0,11,2.7,14.4,7.2c0.7-0.1,1.4-0.2,2.1-0.2c7.4,0,13.5,6.1,13.5,13.5c0,1.4-0.2,2.8-0.6,4.1
			C1694.6,301.9,1693.8,302.5,1692.9,302.5z M1652.1,298.5h39.3c0.1-0.5,0.1-1,0.1-1.5c0-5.2-4.3-9.5-9.5-9.5
			c-0.8,0-1.7,0.1-2.5,0.3c-0.8,0.2-1.7-0.1-2.2-0.9c-2.6-4.1-7-6.5-11.8-6.5c-7.7,0-14,6.3-14,14
			C1651.5,295.9,1651.7,297.2,1652.1,298.5z"/>
	</g>
</g>
<g>
	<g>
		<path class="st2" d="M817.4,179.6h-8.5c-1.1,0-2-0.9-2-2c0-7.5-6.1-13.6-13.6-13.6c-5.9,0-11.1,3.8-12.9,9.4
			c-0.3,1.1-1.5,1.6-2.5,1.3c-1.1-0.3-1.6-1.5-1.3-2.5c2.3-7.3,9.1-12.2,16.8-12.2c9,0,16.5,6.8,17.5,15.6h6.6c1.1,0,2,0.9,2,2
			S818.5,179.6,817.4,179.6z"/>
	</g>
	<g>
		<path class="st2" d="M778.5,173.3c-0.1,0-0.2,0-0.3,0c-1.1-0.2-1.8-1.2-1.7-2.3c0.4-2.3,0.6-4.7,0.6-7.1c0-24-19.5-43.5-43.5-43.5
			c-17.2,0-32.8,10.1-39.8,25.8c-0.4,1-1.6,1.5-2.6,1c-1-0.4-1.5-1.6-1-2.6c7.6-17.1,24.7-28.2,43.4-28.2
			c26.2,0,47.5,21.3,47.5,47.5c0,2.6-0.2,5.2-0.6,7.7C780.3,172.6,779.5,173.3,778.5,173.3z"/>
	</g>
	<g>
		<path class="st2" d="M647.2,155.7c-1.1,0-2-0.9-2-2c0-13.7,11.2-24.9,24.9-24.9c11,0,20.5,7,23.8,17.5c0.3,1.1-0.3,2.2-1.3,2.5
			c-1.1,0.3-2.2-0.3-2.5-1.3c-2.7-8.8-10.8-14.7-20-14.7c-11.5,0-20.9,9.4-20.9,20.9C649.2,154.8,648.3,155.7,647.2,155.7z"/>
	</g>
</g>
<g>
	<g>
		<path class="st2" d="M457.6,189.5c-3,0-5.8-1-8.2-2.8c-2.8-2.2-4.5-5.3-4.9-8.8c-0.4-3.5,0.6-7,2.8-9.7c2.2-2.8,5.3-4.5,8.8-4.9
			c3.1-0.4,6.2,0.4,8.8,2.1c0.9,0.6,1.2,1.8,0.6,2.8c-0.6,0.9-1.8,1.2-2.8,0.6c-1.8-1.2-4-1.7-6.2-1.5c-5.1,0.6-8.7,5.2-8.1,10.2
			c0.6,5.1,5.2,8.7,10.2,8.1c1.1-0.1,2.1,0.7,2.2,1.8c0.1,1.1-0.7,2.1-1.8,2.2C458.7,189.5,458.2,189.5,457.6,189.5z"/>
	</g>
	<g>
		<path class="st2" d="M463.9,168.9c-1,0-1.9-0.8-2-1.9c-0.7-10,6.5-18.7,16.5-19.9c9.3-1.1,18,4.9,20.3,14c0.3,1.1-0.4,2.2-1.5,2.4
			c-1.1,0.3-2.2-0.4-2.4-1.5c-1.8-7.1-8.7-11.9-16-11c-7.8,0.9-13.5,7.8-12.9,15.6c0.1,1.1-0.8,2.1-1.9,2.1
			C463.9,168.9,463.9,168.9,463.9,168.9z"/>
	</g>
	<g>
		<path class="st2" d="M519.5,169.5c-1,0-1.9-0.7-2-1.8c-0.3-2.8-1.7-5.3-4-7.1c-2.2-1.8-5-2.5-7.8-2.2c-3,0.4-5.7,1.9-7.4,4.4
			c-0.6,0.9-1.9,1.1-2.8,0.5c-0.9-0.6-1.1-1.9-0.5-2.8c2.4-3.4,6.1-5.5,10.2-6c3.9-0.5,7.7,0.6,10.8,3c3.1,2.4,5,5.9,5.5,9.8
			c0.1,1.1-0.7,2.1-1.8,2.2C519.7,169.5,519.6,169.5,519.5,169.5z"/>
	</g>
</g>
<g>
	<g>
		<path class="st2" d="M1737.3,115.6c-0.1,0-0.3,0-0.4,0c-1.1-0.2-1.8-1.3-1.5-2.4c1.5-6.5-2.6-13-9.2-14.5c-1.7-0.4-3.5-0.4-5.3,0
			c-3,0.7-5.6,2.4-7.4,5c-0.6,0.9-1.9,1.1-2.8,0.5c-0.9-0.6-1.1-1.9-0.5-2.8c2.3-3.4,5.8-5.7,9.8-6.6c2.3-0.5,4.7-0.5,7,0
			c8.7,2,14.1,10.6,12.2,19.3C1739.1,115,1738.3,115.6,1737.3,115.6z"/>
	</g>
	<g>
		<path class="st2" d="M1662.2,111.4c-0.1,0-0.2,0-0.3,0c-1.1-0.2-1.8-1.2-1.7-2.3c0.1-0.6,0.2-1.3,0.4-1.9
			c3.5-15.3,18.7-24.9,34-21.5c8.3,1.9,15.3,7.3,19.1,14.9c0.5,1,0.1,2.2-0.9,2.7c-1,0.5-2.2,0.1-2.7-0.9
			c-3.3-6.5-9.3-11.2-16.5-12.8c-13.2-3-26.3,5.3-29.3,18.5c-0.1,0.5-0.2,1.1-0.3,1.6C1664,110.7,1663.1,111.4,1662.2,111.4z"/>
	</g>
	<g>
		<path class="st2" d="M1634.1,121.2h-8.8c-1.1,0-2-0.9-2-2s0.9-2,2-2h7.3c3-9.6,13-15.5,23-13.2c2.9,0.7,5.6,2,7.9,3.8
			c0.9,0.7,1,2,0.3,2.8c-0.7,0.9-2,1-2.8,0.3c-1.9-1.5-4-2.5-6.3-3c-8.4-1.9-16.7,3.4-18.6,11.7
			C1635.8,120.5,1635,121.2,1634.1,121.2z"/>
	</g>
</g>
</svg>
